<svg xmlns="http://www.w3.org/2000/svg" viewBox="147.10 147.10 3010.80 755.80">
	<g transform="translate(103.448 103.448) scale(10.34483)">
		<defs>
			<linearGradient id="logoB">
				<stop offset="0" stop-color="#7f00ff"/>
				<stop offset="1" stop-color="#e100ff"/>
			</linearGradient>
			<linearGradient id="logoA">
				<stop offset="0" stop-color="#7f00ff"/>
				<stop offset="1" stop-color="#e100ff"/>
			</linearGradient>
		</defs>
		<g fill="url(#logoA)" transform="matrix(.7 0 0 .7 10 5.88)">
			<path
				xmlns="http://www.w3.org/2000/svg" d="M49.796 20.291L20.547 37.289l7.754 4.477 21.697 12.527 29.248-16.998zM80.342 39.69L51.24 56.634 51.353 65H80v.087z"/>
			<path
				xmlns="http://www.w3.org/2000/svg" d="M50 5.886c-27.614 0-50 22.34-50 49.954C0 58.985.294 62 .849 65H16v.087l.249-27.798c0-.029.089-.059.091-.087.002-.031.045-.062.049-.093.004-.029.032-.058.038-.086.006-.03.021-.062.029-.091.008-.028.024-.055.033-.083.01-.028.021-.058.032-.086.012-.027.027-.053.04-.079.013-.026.026-.055.041-.081.015-.025.033-.05.05-.074s.032-.05.05-.073c.019-.024.041-.047.061-.07.019-.021.036-.044.057-.064.023-.023.049-.044.074-.065.021-.018.04-.037.062-.054.026-.021.056-.038.084-.057.022-.015.042.016.065.003l.004.044L49.1 17.554c.427-.248.954-.272 1.382-.025L82.685 36.11c.053.03.104.059.152.096.014.011.025.021.039.032.033.027.066.053.096.083.017.016.03.033.046.051.024.027.05.054.072.083.016.021.028.043.043.064.02.028.039.055.056.084.014.023.024.049.037.073.014.028.03.057.042.087.011.025.019.052.027.078.01.03.022.06.031.092.007.026.011.054.016.081.007.031.015.062.02.096.004.028-.184.058-.182.086.003.031-.18.062-.18.093v.006L83.295 65h15.856c.555-3 .849-6.015.849-9.16 0-27.614-22.386-49.954-50-49.954z"/>
			<path
				xmlns="http://www.w3.org/2000/svg" d="M48.321 56.68l-6.231-3.684-22.996-13.365L19.096 65H48v.087zm33.585 11.764c-.677 0-1.226.598-1.229 1.275 0 .677.545 1.28 1.223 1.28h.006c.674 0 1.222-.598 1.222-1.274.003-.677-.545-1.278-1.222-1.281zm-.015 4.628c-.321 0-.64.129-.866.358-.228.227-.358.542-.358.867 0 .321.131.637.358.863.227.229.545.361.866.361s.638-.132.867-.361c.227-.227.358-.542.358-.863 0-.325-.132-.641-.358-.867-.23-.229-.546-.358-.867-.358zm-4.616 2.49c-.586.34-.784 1.09-.444 1.676.229.389.64.609 1.062.609.208 0 .42-.056.612-.169.586-.34.784-1.09.444-1.675-.339-.581-1.089-.78-1.674-.441zm-4 2.322c-.586.34-.785 1.091-.441 1.676.227.392.637.609 1.06.609.208 0 .42-.052.612-.165.585-.341.784-1.091.444-1.676s-1.09-.784-1.675-.444zM53.277 89.508c-.585.34-.784 1.087-.444 1.672.23.392.641.613 1.063.613.208 0 .419-.056.612-.169.585-.34.784-1.088.444-1.673s-1.09-.783-1.675-.443zm4-2.325c-.585.34-.784 1.091-.444 1.676.23.389.641.609 1.063.609.208 0 .42-.056.612-.166.585-.34.784-1.09.444-1.675s-1.09-.784-1.675-.444zm4-2.325c-.585.34-.784 1.09-.443 1.675.227.393.64.609 1.06.609.211 0 .423-.052.615-.165.585-.34.784-1.09.444-1.676-.34-.584-1.091-.782-1.676-.443zm7.997-4.649c-.581.34-.78 1.09-.44 1.675.227.393.637.609 1.06.609.208 0 .42-.052.615-.165.585-.34.781-1.091.441-1.675-.34-.586-1.091-.785-1.676-.444zm-3.997 2.324c-.585.34-.783 1.091-.443 1.676.227.392.637.609 1.06.609.208 0 .419-.052.615-.166.585-.34.784-1.09.444-1.675s-1.091-.784-1.676-.444zm-15.339-4.744c.674 0 1.223.552 1.22 1.228.003-.676-.542-1.228-1.22-1.228zm-.027 9.25c.677.003 1.223.551 1.223 1.228.003-.677-.546-1.225-1.223-1.228zm-1.106-7.551c.184.439.617.749 1.125.751-.507-.002-.94-.312-1.125-.751zm-.121 8.773c.001-.338.139-.645.36-.865-.223.22-.36.526-.36.865zm0 0c-.004.677.545 1.229 1.222 1.229-.677-.004-1.226-.552-1.222-1.229zm.051-18.502c-.003.677.545 1.228 1.222 1.228-.677-.004-1.222-.551-1.222-1.228zm1.216 3.402c-.593 0-1.088.417-1.203.976-.017.079-.025.356-.025.441-.003.676.546 1.422 1.222 1.422h.003c.674 0 1.222-.739 1.225-1.413 0-.085-.008-.265-.024-.345-.114-.558-.606-1.078-1.198-1.081zm-.027 9.253c-.677-.003-1.226.612-1.229 1.29 0 .676.546 1.296 1.223 1.296h.003c.677 0 1.225-.612 1.225-1.29.002-.678-.545-1.293-1.222-1.296z"/>
			<path
				xmlns="http://www.w3.org/2000/svg" d="M49.938 77.789c-.084 0-.167.008-.247.024-.559.111-.981.605-.983 1.194 0 .171.034.212.097.36.185.441.618.633 1.125.633h.006c.59 0 1.083-.3 1.197-.856.017-.08.025-.103.025-.187.003-.676-.546-1.168-1.22-1.168zm.025-9.253c-.677-.003-1.225.552-1.228 1.229 0 .677.545 1.235 1.222 1.235h.003c.678 0 1.223-.552 1.226-1.229.002-.677-.545-1.232-1.223-1.235zm-.052 18.503c-.339-.002-.645.135-.867.356-.222.221-.359.783-.36 1.121-.004.677.545 1.484 1.221 1.484h.003c.674 0 1.223-.801 1.226-1.478 0-.676-.546-1.48-1.223-1.483zm-.017 4.628c-.322 0-.638.129-.864.358-.229.227-.358.542-.358.866 0 .322.129.638.358.864.227.229.542.358.864.358.324 0 .64-.129.866-.358.229-.227.361-.542.361-.864 0-.324-.132-.64-.361-.866-.227-.229-.542-.358-.866-.358zm-3.413-2.163c-.585-.336-1.335-.138-1.672.451-.337.585-.138 1.335.447 1.672.193.113.404.166.613.166.422 0 .836-.222 1.062-.613.337-.588.138-1.335-.45-1.676zm-20.126-11.62c-.585-.337-1.335-.138-1.672.45-.34.586-.138 1.336.447 1.673.193.11.404.165.612.165.423 0 .833-.221 1.063-.612.337-.588.138-1.336-.45-1.676zM22.33 75.56c-.588-.337-1.335-.138-1.672.45-.34.585-.138 1.335.447 1.672.193.113.404.166.613.166.422 0 .833-.221 1.06-.612.339-.59.137-1.337-.448-1.676zm16.102 9.298c-.588-.34-1.335-.139-1.675.446-.337.586-.135 1.336.45 1.673.193.113.404.165.609.165.426 0 .836-.22 1.063-.612.34-.585.138-1.335-.447-1.672zm-4.025-2.325c-.588-.34-1.335-.138-1.675.447-.337.588-.138 1.336.45 1.676.193.11.401.162.609.162.426 0 .836-.218 1.063-.612.34-.586.138-1.336-.447-1.673zm8.05 4.647c-.585-.337-1.335-.138-1.672.45-.34.585-.138 1.336.447 1.672.193.113.404.166.612.166.423 0 .833-.221 1.063-.613.337-.588.137-1.335-.45-1.675zm-12.078-6.971c-.585-.338-1.335-.139-1.672.447-.337.588-.138 1.335.447 1.675.193.11.404.165.613.165.422 0 .836-.22 1.062-.612.338-.588.138-1.338-.45-1.675zm-12.686-7.137c-.325 0-.64.132-.867.358-.229.229-.358.545-.358.867 0 .321.129.637.358.866.227.227.542.358.867.358.322 0 .637-.132.867-.358.227-.229.358-.545.358-.866 0-.322-.132-.638-.358-.867-.23-.226-.545-.358-.867-.358zm.015-4.625c-.677-.003-1.229.597-1.229 1.273-.002.677.546 1.28 1.223 1.28h.003c.674 0 1.222-.6 1.225-1.273.004-.677-.545-1.28-1.222-1.28zM97.318 67H2.37c-.254 0-.459.246-.459.5s.205.5.459.5h94.949c.254 0 .46-.246.46-.5s-.207-.5-.461-.5z" />
		</g>
		
		<path d="M10.08 22H1.6V8h2.7v11.5h5.78V22zm8.28-4.34v-1.94c0-1.28-.86-2.28-2.28-2.28-1.52 0-2.4 1.1-2.4 3.26 0 2.14.88 3.26 2.4 3.26 1.42 0 2.28-1.02 2.28-2.3zm2.6 4.34h-2.44v-1.02h-.04c-.06.1-.16.22-.3.36-.12.14-.42.34-.92.6-.48.24-1 .36-1.58.36-1.4 0-2.52-.5-3.36-1.52-.82-1.02-1.24-2.38-1.24-4.08 0-1.72.46-3.08 1.36-4.08.9-1.02 1.98-1.52 3.2-1.52 1.12 0 2.1.56 2.42.98l.26.34h.04V7.4h2.6V22zm11.02 0H29.8v-1.02h-.04c0 .02-.74 1.32-2.88 1.32-2.56 0-3.82-1.38-3.82-3.14 0-1.84.98-2.66 3.6-3.3 1.22-.3 1.98-.52 2.28-.7s.46-.42.46-.74c0-.64-.6-1.12-1.8-1.12-1.42 0-1.9.68-2.24 1.74l-2.16-.9c.5-1.78 1.98-3.04 4.36-3.04 1.3 0 2.36.34 3.18 1.02s1.24 1.74 1.24 3.16V22zm-4.8-4.34c-1.34.32-1.62.76-1.62 1.32 0 .72.52 1.08 1.56 1.08 1.58 0 2.36-.68 2.36-1.56v-1.84h-.04c-.06.1-.12.2-.18.26-.1.1-.8.42-2.08.74zm10-2.06v2.18c0 1.22.9 2.18 2.28 2.18 1.52 0 2.6-1.16 2.6-3.26s-1.06-3.26-2.6-3.26c-1.38 0-2.28.96-2.28 2.16zm0 10.9h-2.6V11.4h2.48v1.02h.04c0-.02.8-1.3 2.86-1.32 1.26 0 2.34.5 3.28 1.52.94 1 1.42 2.36 1.42 4.08 0 1.74-.46 3.1-1.36 4.1s-2 1.5-3.3 1.5c-1.6 0-2.46-.84-2.7-1.18l-.08-.14h-.04v5.52zM49.66 22h-2.7V8h5.68c1.44 0 2.6.4 3.48 1.22.9.8 1.34 1.88 1.34 3.24 0 2.02-1.12 3.5-2.96 4.08L57.48 22h-2.92l-2.82-5.2h-2.08V22zm0-11.56v4.02h2.76c1.54 0 2.3-.66 2.3-2s-.76-2.02-2.3-2.02h-2.76zm16.7 7.9l1.82 1.6c-1.08 1.58-2.54 2.36-4.38 2.36-1.48 0-2.68-.5-3.62-1.52s-1.4-2.38-1.4-4.08.46-3.04 1.38-4.06c.94-1.02 2.1-1.54 3.52-1.54s2.58.52 3.48 1.54c.92 1.02 1.38 2.36 1.38 4.06v.78h-7.12c.08 1.62.92 2.52 2.34 2.52 1.2 0 1.9-.64 2.6-1.66zm-4.94-2.8h4.6c-.14-1.36-.96-2.16-2.34-2.16-1.28 0-2.16.94-2.26 2.16zM77 17.72l2.46.64c-.48 2.54-2.16 3.94-4.58 3.94-1.44 0-2.62-.5-3.56-1.48-.92-.98-1.38-2.36-1.38-4.12 0-1.74.48-3.12 1.42-4.1.96-1 2.14-1.5 3.54-1.5 2.38 0 4.08 1.5 4.46 3.82l-2.42.46c-.26-1.3-.94-1.94-2.04-1.94-1.46 0-2.4 1.12-2.4 3.26s.9 3.26 2.4 3.26c1.18 0 1.88-.74 2.1-2.24zm6.96 1.4c.42.56 1.02.84 1.76.84s1.34-.28 1.76-.84c.42-.58.64-1.38.64-2.42s-.22-1.84-.66-2.4c-.42-.58-1-.86-1.74-.86s-1.32.28-1.76.84c-.42.56-.64 1.36-.64 2.42s.22 1.86.64 2.42zm-3.2-2.42c0-1.74.48-3.1 1.44-4.1s2.14-1.5 3.52-1.5 2.56.5 3.52 1.5 1.44 2.36 1.44 4.1c0 1.76-.46 3.14-1.4 4.12s-2.12 1.48-3.56 1.48-2.62-.5-3.56-1.48-1.4-2.36-1.4-4.12zM95.38 22h-2.6V11.4h2.46v1.12h.04c.4-.8 1.24-1.32 2.18-1.32.34 0 .66.06.96.2l-.4 2.52c-.3-.1-.56-.16-.82-.16-1.22 0-1.82.8-1.82 2.42V22zm11.32-4.34v-1.94c0-1.28-.86-2.28-2.28-2.28-1.52 0-2.4 1.1-2.4 3.26 0 2.14.88 3.26 2.4 3.26 1.42 0 2.28-1.02 2.28-2.3zm2.6 4.34h-2.44v-1.02h-.04c-.06.1-.16.22-.3.36-.12.14-.42.34-.92.6-.48.24-1 .36-1.58.36-1.4 0-2.52-.5-3.36-1.52-.82-1.02-1.24-2.38-1.24-4.08 0-1.72.46-3.08 1.36-4.08.9-1.02 1.98-1.52 3.2-1.52 1.12 0 2.1.56 2.42.98l.26.34h.04V7.4h2.6V22z" fill="url(#logoB)" transform="translate(87.032 14.272) scale(1.85515)"/>
	</g>
</svg>